<?xml version="1.0" standalone="no"?>
<!DOCTYPE svg PUBLIC "-//W3C//DTD SVG 20010904//EN"
 "http://www.w3.org/TR/2001/REC-SVG-20010904/DTD/svg10.dtd">
<svg version="1.0" xmlns="http://www.w3.org/2000/svg"
 width="700.000000pt" height="700.000000pt" viewBox="0 0 700.000000 700.000000"
 preserveAspectRatio="xMidYMid meet">
<metadata>
Created by potrace 1.14, written by Peter Selinger 2001-2017
</metadata>
<g transform="translate(0.000000,700.000000) scale(0.100000,-0.100000)"
fill="#000000" stroke="none">
<path d="M3278 6995 c-1 -1 -42 -5 -89 -9 -47 -4 -95 -8 -106 -10 -11 -3 -44
-7 -74 -11 -102 -12 -217 -34 -344 -67 -44 -11 -89 -22 -101 -24 -91 -17 -415
-140 -579 -220 -180 -87 -448 -247 -555 -331 -8 -6 -51 -40 -95 -74 -353 -275
-673 -651 -897 -1054 -49 -87 -148 -289 -148 -301 0 -2 -9 -23 -20 -47 -57
-123 -157 -435 -186 -582 -2 -11 -10 -54 -19 -95 -29 -147 -36 -200 -52 -370
-15 -164 -8 -592 12 -711 2 -13 6 -46 9 -74 9 -78 23 -156 51 -285 54 -251
162 -550 288 -800 61 -122 169 -312 187 -330 3 -3 31 -43 62 -90 170 -255 431
-534 708 -755 92 -74 370 -265 386 -265 4 0 15 -6 23 -14 9 -7 81 -47 161 -88
354 -181 736 -303 1109 -354 25 -3 57 -8 71 -10 163 -25 682 -25 842 1 13 2
46 7 73 10 74 11 87 13 120 19 17 4 46 9 65 12 51 8 213 48 300 74 253 74 522
187 734 309 49 28 91 51 93 51 10 0 268 180 353 247 152 119 324 280 450 422
36 41 70 79 76 85 6 6 48 61 94 121 150 197 277 405 383 628 26 53 47 99 47
102 0 2 11 28 24 57 57 127 151 421 182 573 17 81 54 301 59 350 4 33 9 71 11
85 9 47 11 525 3 605 -15 165 -21 220 -24 225 -2 3 -6 30 -10 60 -4 30 -22
123 -40 205 -53 232 -102 385 -197 610 -422 993 -1304 1752 -2346 2014 -121
31 -244 57 -312 66 -19 3 -46 7 -60 10 -13 2 -52 7 -86 11 -33 3 -74 8 -90 10
-32 5 -540 14 -546 9z m442 -1339 c115 -14 123 -15 230 -37 449 -89 895 -357
1207 -724 64 -76 63 -75 157 -215 56 -83 184 -320 190 -353 2 -7 9 -25 15 -42
20 -46 42 -108 46 -126 2 -9 12 -47 23 -85 20 -69 36 -139 46 -204 4 -19 8
-45 11 -58 18 -96 25 -379 11 -512 -14 -148 -14 -143 -71 -390 -33 -145 -161
-426 -269 -590 -192 -293 -426 -512 -751 -707 -122 -73 -361 -170 -519 -209
-109 -28 -108 -28 -176 -39 -25 -4 -54 -9 -65 -11 -119 -23 -462 -22 -605 1
-8 1 -37 5 -65 10 -71 11 -84 13 -105 20 -10 3 -27 7 -37 9 -67 13 -225 64
-318 103 -578 240 -1040 735 -1230 1318 -29 89 -70 252 -81 320 -4 28 -9 57
-10 65 -23 114 -23 448 1 600 1 8 5 38 10 65 54 355 232 736 483 1035 248 296
579 520 962 654 62 21 208 61 265 71 71 14 161 26 230 31 44 4 81 8 83 9 5 4
280 -3 332 -9z"/>
</g>
</svg>
